<?xml version="1.0" encoding="utf-8"?>
<!-- Generator: Adobe Illustrator 13.0.1, SVG Export Plug-In . SVG Version: 6.00 Build 14948)  -->
<!DOCTYPE svg PUBLIC "-//W3C//DTD SVG 1.1//EN" "http://www.w3.org/Graphics/SVG/1.1/DTD/svg11.dtd">
<svg version="1.1" id="Layer_1" xmlns="http://www.w3.org/2000/svg" xmlns:xlink="http://www.w3.org/1999/xlink" x="0px" y="0px"
	 width="177.721px" height="33.133px" viewBox="0 0 177.721 33.133" enable-background="new 0 0 177.721 33.133"
	 xml:space="preserve">
<g>
	<g>
		<path d="M10.916,12.216c0-1.138,0.18-2.088,0.539-2.851s0.846-1.38,1.457-1.853c0.611-0.472,1.331-0.811,2.158-1.017
			c0.827-0.205,1.709-0.309,2.645-0.309c1.486,0,2.685,0.146,3.597,0.435c0.911,0.289,1.618,0.699,2.122,1.23
			s0.846,1.164,1.025,1.899c0.18,0.736,0.27,1.538,0.27,2.406v10.24c0,0.917,0.042,1.629,0.126,2.136s0.247,1.05,0.487,1.628
			l-4.754,0.025c-0.168-0.319-0.294-0.657-0.378-1.014c-0.084-0.355-0.162-0.706-0.234-1.05h-0.072
			c-0.576,1.02-1.242,1.681-1.998,1.983s-1.734,0.455-2.934,0.455c-0.865,0-1.598-0.151-2.197-0.453s-1.08-0.719-1.439-1.25
			c-0.36-0.531-0.624-1.13-0.792-1.795c-0.168-0.664-0.252-1.323-0.252-1.976c0-0.918,0.096-1.709,0.288-2.374
			c0.191-0.664,0.485-1.232,0.882-1.703s0.9-0.863,1.513-1.178s1.351-0.592,2.215-0.834l2.81-0.762
			c0.744-0.193,1.26-0.459,1.548-0.797s0.433-0.834,0.433-1.486c0-0.749-0.173-1.335-0.517-1.758
			c-0.345-0.423-0.933-0.635-1.765-0.635c-0.761,0-1.331,0.233-1.711,0.699c-0.381,0.466-0.57,1.091-0.57,1.874v0.552h-4.5V12.216z
			 M18.896,17.062c-0.385,0.156-0.732,0.271-1.044,0.343c-1.01,0.217-1.73,0.577-2.163,1.082c-0.433,0.506-0.648,1.191-0.648,2.058
			c0,0.746,0.144,1.383,0.433,1.912c0.288,0.529,0.769,0.794,1.441,0.794c0.336,0,0.685-0.054,1.045-0.162s0.69-0.283,0.991-0.523
			s0.547-0.554,0.739-0.938c0.191-0.385,0.288-0.842,0.288-1.371V16.43C19.642,16.694,19.281,16.905,18.896,17.062z"/>
		<path d="M37.99,24.121c-0.565,0.919-1.197,1.556-1.896,1.91c-0.699,0.354-1.565,0.531-2.597,0.531
			c-2.088,0-3.623-0.784-4.604-2.353c-0.982-1.568-1.473-4.161-1.473-7.78s0.493-6.23,1.479-7.835
			c0.986-1.604,2.526-2.407,4.621-2.407c0.961,0,1.78,0.192,2.458,0.575c0.677,0.384,1.287,0.959,1.83,1.727h0.064V0.313h5.13
			v25.875h-4.938v-2.066H37.99z M33.045,21.202c0.33,1.074,1.046,1.61,2.147,1.61c1.125,0,1.853-0.536,2.184-1.61
			c0.33-1.074,0.496-2.673,0.496-4.796s-0.166-3.721-0.496-4.795C37.045,10.537,36.317,10,35.192,10
			c-1.102,0-1.817,0.537-2.147,1.611c-0.331,1.074-0.495,2.672-0.495,4.795S32.714,20.128,33.045,21.202z"/>
		<path d="M56.138,23.903c-0.527,0.967-1.211,1.652-2.05,2.055c-0.84,0.402-1.799,0.604-2.878,0.604
			c-1.586,0-2.806-0.416-3.658-1.249c-0.854-0.832-1.279-2.227-1.279-4.182V6.688h5v13.413c0,1.013,0.168,1.718,0.504,2.115
			c0.336,0.398,0.875,0.597,1.619,0.597c1.751,0,2.627-1.072,2.627-3.218V6.688h5v19.5H56.21v-2.284H56.138z"/>
		<path d="M69.48,0.313v25.875h-5V0.313H69.48z"/>
		<path d="M79.447,1.125v5.563h3.03v3.375h-3.03v10.568c0,0.775,0.119,1.326,0.359,1.652c0.24,0.327,0.738,0.49,1.496,0.49
			c0.201,0,0.403-0.006,0.605-0.018s0.392-0.03,0.569-0.055v3.486c-0.581,0-1.144,0.021-1.687,0.063
			c-0.543,0.041-1.117,0.063-1.725,0.063c-1.016,0-1.847-0.067-2.493-0.199c-0.646-0.133-1.142-0.399-1.484-0.8
			c-0.342-0.4-0.577-0.928-0.704-1.582c-0.128-0.654-0.19-1.478-0.19-2.472V10.063h-2.651V6.688h2.651V1.125H79.447z"/>
		<path d="M94.354,20.457c0,0.836,0.232,1.51,0.695,2.023c0.464,0.514,1.136,0.77,2.014,0.77c0.802,0,1.441-0.192,1.918-0.578
			c0.476-0.386,0.715-0.964,0.715-1.735c0-0.627-0.191-1.103-0.57-1.428c-0.381-0.325-0.824-0.584-1.33-0.777l-3.687-1.266
			c-1.444-0.481-2.534-1.162-3.27-2.042c-0.734-0.879-1.102-2.006-1.102-3.38c0-0.795,0.14-1.549,0.42-2.26s0.726-1.331,1.335-1.861
			c0.61-0.53,1.393-0.952,2.346-1.266c0.955-0.313,2.105-0.47,3.453-0.47c2.391,0,4.158,0.486,5.304,1.457
			c1.144,0.972,1.717,2.344,1.717,4.116v0.802h-4.748c0-1.037-0.173-1.796-0.517-2.277s-0.949-0.723-1.814-0.723
			c-0.662,0-1.242,0.176-1.738,0.525c-0.496,0.351-0.745,0.876-0.745,1.577c0,0.483,0.157,0.918,0.476,1.305
			c0.316,0.387,0.918,0.713,1.805,0.979l3.155,1.015c1.646,0.532,2.812,1.228,3.496,2.085s1.026,2.023,1.026,3.498
			c0,1.039-0.19,1.939-0.57,2.7c-0.379,0.762-0.904,1.396-1.574,1.903s-1.467,0.87-2.391,1.087
			c-0.923,0.217-1.941,0.326-3.054,0.326c-1.468,0-2.688-0.133-3.662-0.396c-0.974-0.265-1.745-0.662-2.314-1.191
			c-0.568-0.529-0.967-1.174-1.195-1.932c-0.228-0.758-0.341-1.605-0.341-2.545v-0.686h4.748V20.457z"/>
		<path d="M110.438,6.688l2.415,13.846h0.077l2.568-13.846h5.753l2.724,13.846h0.076l2.492-13.846h5.063l-4.449,19.5h-6.021
			l-2.722-13.846h-0.077l-2.569,13.846h-6.137l-4.487-19.5H110.438z"/>
		<path d="M139.182,0v4.25h-5.658V0H139.182z M139.182,6.688v19.5h-5.658v-19.5H139.182z"/>
		<path d="M146.793,6.688v1.981h0.096c0.642-0.887,1.363-1.522,2.166-1.906c0.801-0.383,1.758-0.575,2.869-0.575
			c1.205,0,2.215,0.264,3.031,0.791s1.362,1.295,1.639,2.302h0.105c0.395-1.031,1.03-1.804,1.906-2.319
			c0.875-0.516,1.918-0.773,3.129-0.773c1.729,0,2.999,0.502,3.813,1.504c0.814,1.002,1.222,2.445,1.222,4.329v14.167h-5.163V12.541
			c0-0.822-0.156-1.452-0.469-1.888c-0.312-0.436-0.828-0.653-1.551-0.653c-0.822,0-1.478,0.267-1.963,0.799
			c-0.486,0.532-0.729,1.379-0.729,2.54v12.849h-5.163V12.541c0-0.822-0.157-1.452-0.469-1.888S150.433,10,149.711,10
			c-0.823,0-1.478,0.267-1.964,0.799c-0.485,0.532-0.729,1.379-0.729,2.54v12.849h-5.163v-19.5H146.793z"/>
	</g>
	<polygon points="0,0.588 9.143,0.588 9.143,4.715 5.485,4.715 5.485,29.006 9.143,29.006 9.143,33.133 0,33.133 	"/>
	<polygon points="177.721,33.133 168.579,33.133 168.579,29.006 172.236,29.006 172.236,4.715 168.579,4.715 168.579,0.588 
		177.721,0.588 	"/>
</g>
</svg>
