<?xml version="1.0" encoding="utf-8"?>
<!-- Generator: Adobe Illustrator 19.1.0, SVG Export Plug-In . SVG Version: 6.00 Build 0)  -->
<svg version="1.1" id="Layer_1" xmlns="http://www.w3.org/2000/svg" xmlns:xlink="http://www.w3.org/1999/xlink" x="0px" y="0px"
	 viewBox="-1130.1 443.4 462.2 315.2" style="enable-background:new -1130.1 443.4 462.2 315.2;" xml:space="preserve">
<style type="text/css">
	.st0{fill:#1AB7EA;}
	.st1{fill:#FFFFFF;}
</style>
<g>
	<rect x="-849.1" y="577.4" class="st0" width="181.2" height="181.2"/>
	<path class="st0" d="M-667.9,638.6h-120v120h120V638.6z M-686.9,678.5c-0.4,8.4-6.3,20-17.7,34.7c-11.8,15.3-21.8,23-29.9,23
		c-5.1,0-9.3-4.7-12.8-14c-2.3-8.6-4.7-17.1-7-25.7c-2.6-9.3-5.4-14-8.4-14c-0.6,0-2.9,1.4-6.8,4.1l-4.1-5.3
		c4.3-3.8,8.5-7.5,12.7-11.3c5.7-4.9,10-7.5,12.9-7.8c6.7-0.6,10.9,4,12.5,13.8c1.7,10.7,2.9,17.3,3.5,19.9
		c1.9,8.8,4.1,13.3,6.4,13.3c1.8,0,4.5-2.9,8.2-8.6c3.6-5.7,5.6-10.1,5.8-13.1c0.5-4.9-1.4-7.4-5.8-7.4c-2.1,0-4.2,0.5-6.4,1.4
		c4.3-14,12.4-20.7,24.4-20.3C-690.6,661.4-686.4,667.2-686.9,678.5z"/>
	<path class="st1" d="M-699.4,661.2c-12-0.4-20.1,6.3-24.4,20.3c2.2-0.9,4.3-1.4,6.4-1.4c4.4,0,6.3,2.5,5.8,7.4
		c-0.2,3-2.2,7.4-5.8,13.1c-3.7,5.7-6.4,8.6-8.2,8.6c-2.3,0-4.5-4.5-6.4-13.3c-0.6-2.6-1.8-9.2-3.5-19.9
		c-1.6-9.8-5.8-14.4-12.5-13.8c-2.9,0.3-7.2,2.9-12.9,7.8c-4.2,3.8-8.4,7.5-12.7,11.3l4.1,5.3c3.9-2.7,6.2-4.1,6.8-4.1
		c3,0,5.8,4.7,8.4,14c2.3,8.6,4.7,17.1,7,25.7c3.5,9.3,7.7,14,12.8,14c8.1,0,18.1-7.7,29.9-23c11.4-14.7,17.3-26.3,17.7-34.7
		C-686.4,667.2-690.6,661.4-699.4,661.2z"/>
</g>
</svg>
