<svg version="1.1" xmlns="http://www.w3.org/2000/svg" xmlns:xlink="http://www.w3.org/1999/xlink" x="0px" y="0px" width="180px" height="100px" viewBox="0 0 180 100" enable-background="new 0 0 180 100" xml:space="preserve"><path d="M165.247,79.111c0,3.839-3.132,6.964-6.992,6.964h-6.992V13.918h6.992c3.859,0,6.992,3.124,6.992,6.96V79.111z M158.256,0 h-19.701c-0.702,0-1.271,0.56-1.271,1.263v97.466c0,0.705,0.569,1.271,1.271,1.271h19.701c11.567,0,20.976-9.381,20.976-20.889 V20.877C179.232,9.365,169.822,0,158.256,0z M119.489,79.111c0,3.839-3.136,6.964-6.992,6.964s-6.997-3.124-6.997-6.964V20.877 c0-3.836,3.141-6.96,6.997-6.96s6.992,3.124,6.992,6.96V79.111z M112.498,0c-11.567,0-20.973,9.365-20.973,20.877v58.233 c0,11.509,9.407,20.889,20.973,20.889c11.566,0,20.971-9.381,20.971-20.889V20.877C133.469,9.365,124.064,0,112.498,0z M20.972,0 C9.41,0,0,9.365,0,20.877v58.233C0,90.619,9.41,100,20.972,100c4.919,0,9.431-1.712,13.012-4.537L35.592,100h5.081 c0.702,0,1.271-0.566,1.271-1.271v-56.96c0-0.701-0.569-1.262-1.271-1.262H21.612c-0.706,0-1.276,0.561-1.276,1.262v11.389 c0,0.705,0.569,1.267,1.276,1.267h6.352v24.685c0,3.839-3.137,6.964-6.992,6.964c-3.855,0-6.992-3.124-6.992-6.964V20.877 c0-3.836,3.137-6.96,6.992-6.96c3.856,0,6.992,3.124,6.992,6.96v4.435c0,0.694,0.569,1.263,1.276,1.263h11.433 c0.702,0,1.271-0.569,1.271-1.263v-4.435C41.944,9.365,32.539,0,20.972,0z M73.727,79.111c0,3.839-3.141,6.964-6.992,6.964 c-3.856,0-6.992-3.124-6.992-6.964V20.877c0-3.836,3.137-6.96,6.992-6.96c3.851,0,6.992,3.124,6.992,6.96V79.111z M66.735,0 C55.169,0,45.758,9.365,45.758,20.877v58.233c0,11.509,9.41,20.889,20.976,20.889c11.566,0,20.972-9.381,20.972-20.889V20.877 C87.707,9.365,78.301,0,66.735,0z"></path></svg>